{
 "cells": [
  {
   "cell_type": "code",
   "execution_count": 5,
   "metadata": {},
   "outputs": [],
   "source": [
    "import time\n",
    "import os\n",
    "import subprocess\n",
    "import cv2\n",
    "import moviepy\n",
    "from skimage.metrics import structural_similarity as ssim\n",
    "from PIL import Image\n",
    "import pandas as pd\n",
    "import numpy as np\n",
    "import matplotlib.pyplot as plt"
   ]
  },
  {
   "cell_type": "markdown",
   "metadata": {},
   "source": [
    "# Recording Video with a webcam"
   ]
  },
  {
   "cell_type": "code",
   "execution_count": 14,
   "metadata": {},
   "outputs": [],
   "source": [
    "def capture_video(folder_name, delay_s=3, video_duration_s = 5):\n",
    "    folder_path = f\"../data/videos/{folder_name}\"\n",
    "    os.makedirs(folder_path, exist_ok=True)\n",
    "\n",
    "    print(\"\\nTaking video in...\")\n",
    "    while delay_s > 0:\n",
    "        print(f\"{delay_s}...\")\n",
    "        time.sleep(1)\n",
    "        delay_s -= 1\n",
    "\n",
    "    raw_video_path = f\"{folder_path}/i420.avi\"\n",
    "    command = f\"ffmpeg -y -f v4l2 -framerate 30 -i /dev/video0 -t {video_duration_s} {raw_video_path}\"\n",
    "    subprocess.run(command, shell=True)\n",
    "\n",
    "    formats = {\n",
    "        \"mp4.mp4\": \"libx264\",   # MP4 format\n",
    "        \"divx.avi\": \"mpeg4\",    # DivX format\n",
    "        \"flv.flv\": \"flv\",       # FLV format\n",
    "        \"xvid.avi\": \"libxvid\"   # Xvid format\n",
    "    }\n",
    "\n",
    "    for filename, codec in formats.items():\n",
    "        output_path = f\"{folder_path}/{filename}\"\n",
    "        command = f\"ffmpeg -i {raw_video_path} -c:v {codec} {output_path}\"\n",
    "        subprocess.run(command, shell=True)\n"
   ]
  },
  {
   "cell_type": "code",
   "execution_count": 16,
   "metadata": {},
   "outputs": [
    {
     "name": "stdout",
     "output_type": "stream",
     "text": [
      "\n",
      "Taking video in...\n",
      "3...\n",
      "2...\n",
      "1...\n"
     ]
    },
    {
     "name": "stderr",
     "output_type": "stream",
     "text": [
      "ffmpeg version n7.1 Copyright (c) 2000-2024 the FFmpeg developers\n",
      "  built with gcc 14.2.1 (GCC) 20240910\n",
      "  configuration: --prefix=/usr --disable-debug --disable-static --disable-stripping --enable-amf --enable-avisynth --enable-cuda-llvm --enable-lto --enable-fontconfig --enable-frei0r --enable-gmp --enable-gnutls --enable-gpl --enable-ladspa --enable-libaom --enable-libass --enable-libbluray --enable-libbs2b --enable-libdav1d --enable-libdrm --enable-libdvdnav --enable-libdvdread --enable-libfreetype --enable-libfribidi --enable-libglslang --enable-libgsm --enable-libharfbuzz --enable-libiec61883 --enable-libjack --enable-libjxl --enable-libmodplug --enable-libmp3lame --enable-libopencore_amrnb --enable-libopencore_amrwb --enable-libopenjpeg --enable-libopenmpt --enable-libopus --enable-libplacebo --enable-libpulse --enable-librav1e --enable-librsvg --enable-librubberband --enable-libsnappy --enable-libsoxr --enable-libspeex --enable-libsrt --enable-libssh --enable-libsvtav1 --enable-libtheora --enable-libv4l2 --enable-libvidstab --enable-libvmaf --enable-libvorbis --enable-libvpl --enable-libvpx --enable-libwebp --enable-libx264 --enable-libx265 --enable-libxcb --enable-libxml2 --enable-libxvid --enable-libzimg --enable-libzmq --enable-nvdec --enable-nvenc --enable-opencl --enable-opengl --enable-shared --enable-vapoursynth --enable-version3 --enable-vulkan\n",
      "  libavutil      59. 39.100 / 59. 39.100\n",
      "  libavcodec     61. 19.100 / 61. 19.100\n",
      "  libavformat    61.  7.100 / 61.  7.100\n",
      "  libavdevice    61.  3.100 / 61.  3.100\n",
      "  libavfilter    10.  4.100 / 10.  4.100\n",
      "  libswscale      8.  3.100 /  8.  3.100\n",
      "  libswresample   5.  3.100 /  5.  3.100\n",
      "  libpostproc    58.  3.100 / 58.  3.100\n",
      "Input #0, video4linux2,v4l2, from '/dev/video0':\n",
      "  Duration: N/A, start: 3175.536119, bitrate: 147456 kb/s\n",
      "  Stream #0:0: Video: rawvideo (YUY2 / 0x32595559), yuyv422, 640x480, 147456 kb/s, 30 fps, 30 tbr, 1000k tbn\n",
      "Stream mapping:\n",
      "  Stream #0:0 -> #0:0 (rawvideo (native) -> mpeg4 (native))\n",
      "Press [q] to stop, [?] for help\n",
      "Output #0, avi, to '../data/videos/test_1/i420.avi':\n",
      "  Metadata:\n",
      "    ISFT            : Lavf61.7.100\n",
      "  Stream #0:0: Video: mpeg4 (FMP4 / 0x34504D46), yuv420p(tv, progressive), 640x480, q=2-31, 200 kb/s, 30 fps, 30 tbn\n",
      "      Metadata:\n",
      "        encoder         : Lavc61.19.100 mpeg4\n",
      "      Side data:\n",
      "        cpb: bitrate max/min/avg: 0/0/200000 buffer size: 0 vbv_delay: N/A\n",
      "[out#0/avi @ 0x64417ec439c0] video:205KiB audio:0KiB subtitle:0KiB other streams:0KiB global headers:0KiB muxing overhead: 4.464533%\n",
      "frame=  149 fps= 30 q=15.0 Lsize=     214KiB time=00:00:05.00 bitrate= 350.2kbits/s speed=0.997x    \n",
      "ffmpeg version n7.1 Copyright (c) 2000-2024 the FFmpeg developers\n",
      "  built with gcc 14.2.1 (GCC) 20240910\n",
      "  configuration: --prefix=/usr --disable-debug --disable-static --disable-stripping --enable-amf --enable-avisynth --enable-cuda-llvm --enable-lto --enable-fontconfig --enable-frei0r --enable-gmp --enable-gnutls --enable-gpl --enable-ladspa --enable-libaom --enable-libass --enable-libbluray --enable-libbs2b --enable-libdav1d --enable-libdrm --enable-libdvdnav --enable-libdvdread --enable-libfreetype --enable-libfribidi --enable-libglslang --enable-libgsm --enable-libharfbuzz --enable-libiec61883 --enable-libjack --enable-libjxl --enable-libmodplug --enable-libmp3lame --enable-libopencore_amrnb --enable-libopencore_amrwb --enable-libopenjpeg --enable-libopenmpt --enable-libopus --enable-libplacebo --enable-libpulse --enable-librav1e --enable-librsvg --enable-librubberband --enable-libsnappy --enable-libsoxr --enable-libspeex --enable-libsrt --enable-libssh --enable-libsvtav1 --enable-libtheora --enable-libv4l2 --enable-libvidstab --enable-libvmaf --enable-libvorbis --enable-libvpl --enable-libvpx --enable-libwebp --enable-libx264 --enable-libx265 --enable-libxcb --enable-libxml2 --enable-libxvid --enable-libzimg --enable-libzmq --enable-nvdec --enable-nvenc --enable-opencl --enable-opengl --enable-shared --enable-vapoursynth --enable-version3 --enable-vulkan\n",
      "  libavutil      59. 39.100 / 59. 39.100\n",
      "  libavcodec     61. 19.100 / 61. 19.100\n",
      "  libavformat    61.  7.100 / 61.  7.100\n",
      "  libavdevice    61.  3.100 / 61.  3.100\n",
      "  libavfilter    10.  4.100 / 10.  4.100\n",
      "  libswscale      8.  3.100 /  8.  3.100\n",
      "  libswresample   5.  3.100 /  5.  3.100\n",
      "  libpostproc    58.  3.100 / 58.  3.100\n",
      "Input #0, avi, from '../data/videos/test_1/i420.avi':\n",
      "  Metadata:\n",
      "    software        : Lavf61.7.100\n",
      "  Duration: 00:00:05.00, start: 0.000000, bitrate: 350 kb/s\n",
      "  Stream #0:0: Video: mpeg4 (Simple Profile) (FMP4 / 0x34504D46), yuv420p, 640x480 [SAR 1:1 DAR 4:3], 337 kb/s, 30 fps, 30 tbr, 30 tbn\n",
      "Stream mapping:\n",
      "  Stream #0:0 -> #0:0 (mpeg4 (native) -> h264 (libx264))\n",
      "Press [q] to stop, [?] for help\n",
      "[libx264 @ 0x6011d4f82200] using SAR=1/1\n",
      "[libx264 @ 0x6011d4f82200] using cpu capabilities: MMX2 SSE2Fast SSSE3 SSE4.2 AVX FMA3 BMI2 AVX2\n",
      "[libx264 @ 0x6011d4f82200] profile High, level 3.0, 4:2:0, 8-bit\n",
      "[libx264 @ 0x6011d4f82200] 264 - core 164 r3108 31e19f9 - H.264/MPEG-4 AVC codec - Copyleft 2003-2023 - http://www.videolan.org/x264.html - options: cabac=1 ref=3 deblock=1:0:0 analyse=0x3:0x113 me=hex subme=7 psy=1 psy_rd=1.00:0.00 mixed_ref=1 me_range=16 chroma_me=1 trellis=1 8x8dct=1 cqm=0 deadzone=21,11 fast_pskip=1 chroma_qp_offset=-2 threads=12 lookahead_threads=2 sliced_threads=0 nr=0 decimate=1 interlaced=0 bluray_compat=0 constrained_intra=0 bframes=3 b_pyramid=2 b_adapt=1 b_bias=0 direct=1 weightb=1 open_gop=0 weightp=2 keyint=250 keyint_min=25 scenecut=40 intra_refresh=0 rc_lookahead=40 rc=crf mbtree=1 crf=23.0 qcomp=0.60 qpmin=0 qpmax=69 qpstep=4 ip_ratio=1.40 aq=1:1.00\n",
      "Output #0, mp4, to '../data/videos/test_1/mp4.mp4':\n",
      "  Metadata:\n",
      "    software        : Lavf61.7.100\n",
      "    encoder         : Lavf61.7.100\n",
      "  Stream #0:0: Video: h264 (avc1 / 0x31637661), yuv420p(tv, progressive), 640x480 [SAR 1:1 DAR 4:3], q=2-31, 30 fps, 15360 tbn\n",
      "      Metadata:\n",
      "        encoder         : Lavc61.19.100 libx264\n",
      "      Side data:\n",
      "        cpb: bitrate max/min/avg: 0/0/0 buffer size: 0 vbv_delay: N/A\n",
      "[out#0/mp4 @ 0x6011d4f87840] video:274KiB audio:0KiB subtitle:0KiB other streams:0KiB global headers:0KiB muxing overhead: 0.671616%\n",
      "frame=  149 fps= 80 q=-1.0 Lsize=     276KiB time=00:00:04.93 bitrate= 458.7kbits/s speed=2.66x    \n",
      "[libx264 @ 0x6011d4f82200] frame I:1     Avg QP:20.33  size:  8828\n",
      "[libx264 @ 0x6011d4f82200] frame P:130   Avg QP:21.12  size:  1925\n",
      "[libx264 @ 0x6011d4f82200] frame B:18    Avg QP:22.92  size:  1178\n",
      "[libx264 @ 0x6011d4f82200] consecutive B-frames: 77.2% 20.1%  0.0%  2.7%\n",
      "[libx264 @ 0x6011d4f82200] mb I  I16..4: 37.4% 60.6%  2.0%\n",
      "[libx264 @ 0x6011d4f82200] mb P  I16..4:  5.1% 10.8%  0.4%  P16..4: 22.9%  3.2%  1.6%  0.0%  0.0%    skip:56.0%\n",
      "[libx264 @ 0x6011d4f82200] mb B  I16..4:  2.1%  5.1%  0.0%  B16..8: 29.5%  3.3%  0.2%  direct: 1.7%  skip:58.0%  L0:81.4% L1:15.0% BI: 3.6%\n",
      "[libx264 @ 0x6011d4f82200] 8x8 transform intra:66.0% inter:89.2%\n",
      "[libx264 @ 0x6011d4f82200] coded y,uvDC,uvAC intra: 25.3% 30.2% 1.0% inter: 3.2% 4.7% 0.1%\n",
      "[libx264 @ 0x6011d4f82200] i16 v,h,dc,p: 55% 23% 21%  1%\n",
      "[libx264 @ 0x6011d4f82200] i8 v,h,dc,ddl,ddr,vr,hd,vl,hu: 22% 17% 50%  5%  1%  1%  0%  1%  3%\n",
      "[libx264 @ 0x6011d4f82200] i4 v,h,dc,ddl,ddr,vr,hd,vl,hu: 59% 22% 10%  2%  2%  2%  1%  1%  1%\n",
      "[libx264 @ 0x6011d4f82200] i8c dc,h,v,p: 53% 21% 25%  1%\n",
      "[libx264 @ 0x6011d4f82200] Weighted P-Frames: Y:1.5% UV:1.5%\n",
      "[libx264 @ 0x6011d4f82200] ref P L0: 74.3%  5.6% 13.9%  6.1%  0.0%\n",
      "[libx264 @ 0x6011d4f82200] ref B L0: 75.9% 23.2%  0.9%\n",
      "[libx264 @ 0x6011d4f82200] ref B L1: 99.4%  0.6%\n",
      "[libx264 @ 0x6011d4f82200] kb/s:448.44\n",
      "ffmpeg version n7.1 Copyright (c) 2000-2024 the FFmpeg developers\n",
      "  built with gcc 14.2.1 (GCC) 20240910\n",
      "  configuration: --prefix=/usr --disable-debug --disable-static --disable-stripping --enable-amf --enable-avisynth --enable-cuda-llvm --enable-lto --enable-fontconfig --enable-frei0r --enable-gmp --enable-gnutls --enable-gpl --enable-ladspa --enable-libaom --enable-libass --enable-libbluray --enable-libbs2b --enable-libdav1d --enable-libdrm --enable-libdvdnav --enable-libdvdread --enable-libfreetype --enable-libfribidi --enable-libglslang --enable-libgsm --enable-libharfbuzz --enable-libiec61883 --enable-libjack --enable-libjxl --enable-libmodplug --enable-libmp3lame --enable-libopencore_amrnb --enable-libopencore_amrwb --enable-libopenjpeg --enable-libopenmpt --enable-libopus --enable-libplacebo --enable-libpulse --enable-librav1e --enable-librsvg --enable-librubberband --enable-libsnappy --enable-libsoxr --enable-libspeex --enable-libsrt --enable-libssh --enable-libsvtav1 --enable-libtheora --enable-libv4l2 --enable-libvidstab --enable-libvmaf --enable-libvorbis --enable-libvpl --enable-libvpx --enable-libwebp --enable-libx264 --enable-libx265 --enable-libxcb --enable-libxml2 --enable-libxvid --enable-libzimg --enable-libzmq --enable-nvdec --enable-nvenc --enable-opencl --enable-opengl --enable-shared --enable-vapoursynth --enable-version3 --enable-vulkan\n",
      "  libavutil      59. 39.100 / 59. 39.100\n",
      "  libavcodec     61. 19.100 / 61. 19.100\n",
      "  libavformat    61.  7.100 / 61.  7.100\n",
      "  libavdevice    61.  3.100 / 61.  3.100\n",
      "  libavfilter    10.  4.100 / 10.  4.100\n",
      "  libswscale      8.  3.100 /  8.  3.100\n",
      "  libswresample   5.  3.100 /  5.  3.100\n",
      "  libpostproc    58.  3.100 / 58.  3.100\n",
      "Input #0, avi, from '../data/videos/test_1/i420.avi':\n",
      "  Metadata:\n",
      "    software        : Lavf61.7.100\n",
      "  Duration: 00:00:05.00, start: 0.000000, bitrate: 350 kb/s\n",
      "  Stream #0:0: Video: mpeg4 (Simple Profile) (FMP4 / 0x34504D46), yuv420p, 640x480 [SAR 1:1 DAR 4:3], 337 kb/s, 30 fps, 30 tbr, 30 tbn\n",
      "Stream mapping:\n",
      "  Stream #0:0 -> #0:0 (mpeg4 (native) -> mpeg4 (native))\n",
      "Press [q] to stop, [?] for help\n",
      "Output #0, avi, to '../data/videos/test_1/divx.avi':\n",
      "  Metadata:\n",
      "    software        : Lavf61.7.100\n",
      "    ISFT            : Lavf61.7.100\n",
      "  Stream #0:0: Video: mpeg4 (FMP4 / 0x34504D46), yuv420p(tv, progressive), 640x480 [SAR 1:1 DAR 4:3], q=2-31, 200 kb/s, 30 fps, 30 tbn\n",
      "      Metadata:\n",
      "        encoder         : Lavc61.19.100 mpeg4\n",
      "      Side data:\n",
      "        cpb: bitrate max/min/avg: 0/0/200000 buffer size: 0 vbv_delay: N/A\n",
      "[out#0/avi @ 0x6327ece36840] video:209KiB audio:0KiB subtitle:0KiB other streams:0KiB global headers:0KiB muxing overhead: 4.413780%\n",
      "frame=  149 fps=0.0 q=16.9 Lsize=     218KiB time=00:00:05.00 bitrate= 357.3kbits/s speed=6.48x    \n",
      "ffmpeg version n7.1 Copyright (c) 2000-2024 the FFmpeg developers\n",
      "  built with gcc 14.2.1 (GCC) 20240910\n",
      "  configuration: --prefix=/usr --disable-debug --disable-static --disable-stripping --enable-amf --enable-avisynth --enable-cuda-llvm --enable-lto --enable-fontconfig --enable-frei0r --enable-gmp --enable-gnutls --enable-gpl --enable-ladspa --enable-libaom --enable-libass --enable-libbluray --enable-libbs2b --enable-libdav1d --enable-libdrm --enable-libdvdnav --enable-libdvdread --enable-libfreetype --enable-libfribidi --enable-libglslang --enable-libgsm --enable-libharfbuzz --enable-libiec61883 --enable-libjack --enable-libjxl --enable-libmodplug --enable-libmp3lame --enable-libopencore_amrnb --enable-libopencore_amrwb --enable-libopenjpeg --enable-libopenmpt --enable-libopus --enable-libplacebo --enable-libpulse --enable-librav1e --enable-librsvg --enable-librubberband --enable-libsnappy --enable-libsoxr --enable-libspeex --enable-libsrt --enable-libssh --enable-libsvtav1 --enable-libtheora --enable-libv4l2 --enable-libvidstab --enable-libvmaf --enable-libvorbis --enable-libvpl --enable-libvpx --enable-libwebp --enable-libx264 --enable-libx265 --enable-libxcb --enable-libxml2 --enable-libxvid --enable-libzimg --enable-libzmq --enable-nvdec --enable-nvenc --enable-opencl --enable-opengl --enable-shared --enable-vapoursynth --enable-version3 --enable-vulkan\n",
      "  libavutil      59. 39.100 / 59. 39.100\n",
      "  libavcodec     61. 19.100 / 61. 19.100\n",
      "  libavformat    61.  7.100 / 61.  7.100\n",
      "  libavdevice    61.  3.100 / 61.  3.100\n",
      "  libavfilter    10.  4.100 / 10.  4.100\n",
      "  libswscale      8.  3.100 /  8.  3.100\n",
      "  libswresample   5.  3.100 /  5.  3.100\n",
      "  libpostproc    58.  3.100 / 58.  3.100\n",
      "Input #0, avi, from '../data/videos/test_1/i420.avi':\n",
      "  Metadata:\n",
      "    software        : Lavf61.7.100\n",
      "  Duration: 00:00:05.00, start: 0.000000, bitrate: 350 kb/s\n",
      "  Stream #0:0: Video: mpeg4 (Simple Profile) (FMP4 / 0x34504D46), yuv420p, 640x480 [SAR 1:1 DAR 4:3], 337 kb/s, 30 fps, 30 tbr, 30 tbn\n",
      "Stream mapping:\n",
      "  Stream #0:0 -> #0:0 (mpeg4 (native) -> flv1 (flv))\n",
      "Press [q] to stop, [?] for help\n",
      "Output #0, flv, to '../data/videos/test_1/flv.flv':\n",
      "  Metadata:\n",
      "    software        : Lavf61.7.100\n",
      "    encoder         : Lavf61.7.100\n",
      "  Stream #0:0: Video: flv1 ([2][0][0][0] / 0x0002), yuv420p(tv, progressive), 640x480 [SAR 1:1 DAR 4:3], q=2-31, 200 kb/s, 30 fps, 1k tbn\n",
      "      Metadata:\n",
      "        encoder         : Lavc61.19.100 flv\n",
      "      Side data:\n",
      "        cpb: bitrate max/min/avg: 0/0/200000 buffer size: 0 vbv_delay: N/A\n",
      "[out#0/flv @ 0x629a2f803840] video:249KiB audio:0KiB subtitle:0KiB other streams:0KiB global headers:0KiB muxing overhead: 1.027475%\n",
      "frame=  149 fps=132 q=16.0 Lsize=     252KiB time=00:00:05.00 bitrate= 412.2kbits/s speed=4.43x    \n",
      "ffmpeg version n7.1 Copyright (c) 2000-2024 the FFmpeg developers\n",
      "  built with gcc 14.2.1 (GCC) 20240910\n",
      "  configuration: --prefix=/usr --disable-debug --disable-static --disable-stripping --enable-amf --enable-avisynth --enable-cuda-llvm --enable-lto --enable-fontconfig --enable-frei0r --enable-gmp --enable-gnutls --enable-gpl --enable-ladspa --enable-libaom --enable-libass --enable-libbluray --enable-libbs2b --enable-libdav1d --enable-libdrm --enable-libdvdnav --enable-libdvdread --enable-libfreetype --enable-libfribidi --enable-libglslang --enable-libgsm --enable-libharfbuzz --enable-libiec61883 --enable-libjack --enable-libjxl --enable-libmodplug --enable-libmp3lame --enable-libopencore_amrnb --enable-libopencore_amrwb --enable-libopenjpeg --enable-libopenmpt --enable-libopus --enable-libplacebo --enable-libpulse --enable-librav1e --enable-librsvg --enable-librubberband --enable-libsnappy --enable-libsoxr --enable-libspeex --enable-libsrt --enable-libssh --enable-libsvtav1 --enable-libtheora --enable-libv4l2 --enable-libvidstab --enable-libvmaf --enable-libvorbis --enable-libvpl --enable-libvpx --enable-libwebp --enable-libx264 --enable-libx265 --enable-libxcb --enable-libxml2 --enable-libxvid --enable-libzimg --enable-libzmq --enable-nvdec --enable-nvenc --enable-opencl --enable-opengl --enable-shared --enable-vapoursynth --enable-version3 --enable-vulkan\n",
      "  libavutil      59. 39.100 / 59. 39.100\n",
      "  libavcodec     61. 19.100 / 61. 19.100\n",
      "  libavformat    61.  7.100 / 61.  7.100\n",
      "  libavdevice    61.  3.100 / 61.  3.100\n",
      "  libavfilter    10.  4.100 / 10.  4.100\n",
      "  libswscale      8.  3.100 /  8.  3.100\n",
      "  libswresample   5.  3.100 /  5.  3.100\n",
      "  libpostproc    58.  3.100 / 58.  3.100\n",
      "Input #0, avi, from '../data/videos/test_1/i420.avi':\n",
      "  Metadata:\n",
      "    software        : Lavf61.7.100\n",
      "  Duration: 00:00:05.00, start: 0.000000, bitrate: 350 kb/s\n",
      "  Stream #0:0: Video: mpeg4 (Simple Profile) (FMP4 / 0x34504D46), yuv420p, 640x480 [SAR 1:1 DAR 4:3], 337 kb/s, 30 fps, 30 tbr, 30 tbn\n",
      "Stream mapping:\n",
      "  Stream #0:0 -> #0:0 (mpeg4 (native) -> mpeg4 (libxvid))\n",
      "Press [q] to stop, [?] for help\n",
      "Output #0, avi, to '../data/videos/test_1/xvid.avi':\n",
      "  Metadata:\n",
      "    software        : Lavf61.7.100\n",
      "    ISFT            : Lavf61.7.100\n",
      "  Stream #0:0: Video: mpeg4 (xvid / 0x64697678), yuv420p(tv, progressive), 640x480 [SAR 1:1 DAR 4:3], q=2-31, 200 kb/s, 30 fps, 30 tbn\n",
      "      Metadata:\n",
      "        encoder         : Lavc61.19.100 libxvid\n",
      "[out#0/avi @ 0x590ec8690840] video:184KiB audio:0KiB subtitle:0KiB other streams:0KiB global headers:0KiB muxing overhead: 5.019904%\n",
      "frame=  149 fps=0.0 q=11.0 Lsize=     193KiB time=00:00:05.00 bitrate= 316.2kbits/s speed=8.95x    \n"
     ]
    },
    {
     "name": "stdout",
     "output_type": "stream",
     "text": [
      "\n",
      "Taking video in...\n",
      "3...\n",
      "2...\n",
      "1...\n"
     ]
    },
    {
     "name": "stderr",
     "output_type": "stream",
     "text": [
      "ffmpeg version n7.1 Copyright (c) 2000-2024 the FFmpeg developers\n",
      "  built with gcc 14.2.1 (GCC) 20240910\n",
      "  configuration: --prefix=/usr --disable-debug --disable-static --disable-stripping --enable-amf --enable-avisynth --enable-cuda-llvm --enable-lto --enable-fontconfig --enable-frei0r --enable-gmp --enable-gnutls --enable-gpl --enable-ladspa --enable-libaom --enable-libass --enable-libbluray --enable-libbs2b --enable-libdav1d --enable-libdrm --enable-libdvdnav --enable-libdvdread --enable-libfreetype --enable-libfribidi --enable-libglslang --enable-libgsm --enable-libharfbuzz --enable-libiec61883 --enable-libjack --enable-libjxl --enable-libmodplug --enable-libmp3lame --enable-libopencore_amrnb --enable-libopencore_amrwb --enable-libopenjpeg --enable-libopenmpt --enable-libopus --enable-libplacebo --enable-libpulse --enable-librav1e --enable-librsvg --enable-librubberband --enable-libsnappy --enable-libsoxr --enable-libspeex --enable-libsrt --enable-libssh --enable-libsvtav1 --enable-libtheora --enable-libv4l2 --enable-libvidstab --enable-libvmaf --enable-libvorbis --enable-libvpl --enable-libvpx --enable-libwebp --enable-libx264 --enable-libx265 --enable-libxcb --enable-libxml2 --enable-libxvid --enable-libzimg --enable-libzmq --enable-nvdec --enable-nvenc --enable-opencl --enable-opengl --enable-shared --enable-vapoursynth --enable-version3 --enable-vulkan\n",
      "  libavutil      59. 39.100 / 59. 39.100\n",
      "  libavcodec     61. 19.100 / 61. 19.100\n",
      "  libavformat    61.  7.100 / 61.  7.100\n",
      "  libavdevice    61.  3.100 / 61.  3.100\n",
      "  libavfilter    10.  4.100 / 10.  4.100\n",
      "  libswscale      8.  3.100 /  8.  3.100\n",
      "  libswresample   5.  3.100 /  5.  3.100\n",
      "  libpostproc    58.  3.100 / 58.  3.100\n",
      "Input #0, video4linux2,v4l2, from '/dev/video0':\n",
      "  Duration: N/A, start: 3190.144352, bitrate: 147456 kb/s\n",
      "  Stream #0:0: Video: rawvideo (YUY2 / 0x32595559), yuyv422, 640x480, 147456 kb/s, 30 fps, 30 tbr, 1000k tbn\n",
      "Stream mapping:\n",
      "  Stream #0:0 -> #0:0 (rawvideo (native) -> mpeg4 (native))\n",
      "Press [q] to stop, [?] for help\n",
      "Output #0, avi, to '../data/videos/test_2/i420.avi':\n",
      "  Metadata:\n",
      "    ISFT            : Lavf61.7.100\n",
      "  Stream #0:0: Video: mpeg4 (FMP4 / 0x34504D46), yuv420p(tv, progressive), 640x480, q=2-31, 200 kb/s, 30 fps, 30 tbn\n",
      "      Metadata:\n",
      "        encoder         : Lavc61.19.100 mpeg4\n",
      "      Side data:\n",
      "        cpb: bitrate max/min/avg: 0/0/200000 buffer size: 0 vbv_delay: N/A\n",
      "[out#0/avi @ 0x61ca556da9c0] video:229KiB audio:0KiB subtitle:0KiB other streams:0KiB global headers:0KiB muxing overhead: 3.982026%\n",
      "frame=  149 fps= 30 q=11.5 Lsize=     239KiB time=00:00:05.00 bitrate= 391.0kbits/s speed=   1x    \n",
      "ffmpeg version n7.1 Copyright (c) 2000-2024 the FFmpeg developers\n",
      "  built with gcc 14.2.1 (GCC) 20240910\n",
      "  configuration: --prefix=/usr --disable-debug --disable-static --disable-stripping --enable-amf --enable-avisynth --enable-cuda-llvm --enable-lto --enable-fontconfig --enable-frei0r --enable-gmp --enable-gnutls --enable-gpl --enable-ladspa --enable-libaom --enable-libass --enable-libbluray --enable-libbs2b --enable-libdav1d --enable-libdrm --enable-libdvdnav --enable-libdvdread --enable-libfreetype --enable-libfribidi --enable-libglslang --enable-libgsm --enable-libharfbuzz --enable-libiec61883 --enable-libjack --enable-libjxl --enable-libmodplug --enable-libmp3lame --enable-libopencore_amrnb --enable-libopencore_amrwb --enable-libopenjpeg --enable-libopenmpt --enable-libopus --enable-libplacebo --enable-libpulse --enable-librav1e --enable-librsvg --enable-librubberband --enable-libsnappy --enable-libsoxr --enable-libspeex --enable-libsrt --enable-libssh --enable-libsvtav1 --enable-libtheora --enable-libv4l2 --enable-libvidstab --enable-libvmaf --enable-libvorbis --enable-libvpl --enable-libvpx --enable-libwebp --enable-libx264 --enable-libx265 --enable-libxcb --enable-libxml2 --enable-libxvid --enable-libzimg --enable-libzmq --enable-nvdec --enable-nvenc --enable-opencl --enable-opengl --enable-shared --enable-vapoursynth --enable-version3 --enable-vulkan\n",
      "  libavutil      59. 39.100 / 59. 39.100\n",
      "  libavcodec     61. 19.100 / 61. 19.100\n",
      "  libavformat    61.  7.100 / 61.  7.100\n",
      "  libavdevice    61.  3.100 / 61.  3.100\n",
      "  libavfilter    10.  4.100 / 10.  4.100\n",
      "  libswscale      8.  3.100 /  8.  3.100\n",
      "  libswresample   5.  3.100 /  5.  3.100\n",
      "  libpostproc    58.  3.100 / 58.  3.100\n",
      "Input #0, avi, from '../data/videos/test_2/i420.avi':\n",
      "  Metadata:\n",
      "    software        : Lavf61.7.100\n",
      "  Duration: 00:00:05.00, start: 0.000000, bitrate: 390 kb/s\n",
      "  Stream #0:0: Video: mpeg4 (Simple Profile) (FMP4 / 0x34504D46), yuv420p, 640x480 [SAR 1:1 DAR 4:3], 378 kb/s, 30 fps, 30 tbr, 30 tbn\n",
      "Stream mapping:\n",
      "  Stream #0:0 -> #0:0 (mpeg4 (native) -> h264 (libx264))\n",
      "Press [q] to stop, [?] for help\n",
      "[libx264 @ 0x5a34bab76200] using SAR=1/1\n",
      "[libx264 @ 0x5a34bab76200] using cpu capabilities: MMX2 SSE2Fast SSSE3 SSE4.2 AVX FMA3 BMI2 AVX2\n",
      "[libx264 @ 0x5a34bab76200] profile High, level 3.0, 4:2:0, 8-bit\n",
      "[libx264 @ 0x5a34bab76200] 264 - core 164 r3108 31e19f9 - H.264/MPEG-4 AVC codec - Copyleft 2003-2023 - http://www.videolan.org/x264.html - options: cabac=1 ref=3 deblock=1:0:0 analyse=0x3:0x113 me=hex subme=7 psy=1 psy_rd=1.00:0.00 mixed_ref=1 me_range=16 chroma_me=1 trellis=1 8x8dct=1 cqm=0 deadzone=21,11 fast_pskip=1 chroma_qp_offset=-2 threads=12 lookahead_threads=2 sliced_threads=0 nr=0 decimate=1 interlaced=0 bluray_compat=0 constrained_intra=0 bframes=3 b_pyramid=2 b_adapt=1 b_bias=0 direct=1 weightb=1 open_gop=0 weightp=2 keyint=250 keyint_min=25 scenecut=40 intra_refresh=0 rc_lookahead=40 rc=crf mbtree=1 crf=23.0 qcomp=0.60 qpmin=0 qpmax=69 qpstep=4 ip_ratio=1.40 aq=1:1.00\n",
      "Output #0, mp4, to '../data/videos/test_2/mp4.mp4':\n",
      "  Metadata:\n",
      "    software        : Lavf61.7.100\n",
      "    encoder         : Lavf61.7.100\n",
      "  Stream #0:0: Video: h264 (avc1 / 0x31637661), yuv420p(tv, progressive), 640x480 [SAR 1:1 DAR 4:3], q=2-31, 30 fps, 15360 tbn\n",
      "      Metadata:\n",
      "        encoder         : Lavc61.19.100 libx264\n",
      "      Side data:\n",
      "        cpb: bitrate max/min/avg: 0/0/0 buffer size: 0 vbv_delay: N/A\n",
      "[out#0/mp4 @ 0x5a34bab7b840] video:242KiB audio:0KiB subtitle:0KiB other streams:0KiB global headers:0KiB muxing overhead: 0.833350%\n",
      "frame=  149 fps=138 q=-1.0 Lsize=     244KiB time=00:00:04.93 bitrate= 404.8kbits/s speed=4.57x    \n",
      "[libx264 @ 0x5a34bab76200] frame I:1     Avg QP:20.09  size:  9762\n",
      "[libx264 @ 0x5a34bab76200] frame P:118   Avg QP:22.13  size:  1817\n",
      "[libx264 @ 0x5a34bab76200] frame B:30    Avg QP:23.50  size:   757\n",
      "[libx264 @ 0x5a34bab76200] consecutive B-frames: 63.8% 26.8%  4.0%  5.4%\n",
      "[libx264 @ 0x5a34bab76200] mb I  I16..4: 32.0% 64.6%  3.4%\n",
      "[libx264 @ 0x5a34bab76200] mb P  I16..4:  3.3%  8.6%  0.2%  P16..4: 21.5%  3.6%  1.8%  0.0%  0.0%    skip:61.0%\n",
      "[libx264 @ 0x5a34bab76200] mb B  I16..4:  1.7%  4.8%  0.0%  B16..8: 25.3%  1.2%  0.0%  direct: 1.1%  skip:65.9%  L0:63.1% L1:33.2% BI: 3.7%\n",
      "[libx264 @ 0x5a34bab76200] 8x8 transform intra:71.3% inter:83.8%\n",
      "[libx264 @ 0x5a34bab76200] coded y,uvDC,uvAC intra: 30.5% 33.2% 1.0% inter: 4.0% 5.7% 0.0%\n",
      "[libx264 @ 0x5a34bab76200] i16 v,h,dc,p: 54% 19% 23%  4%\n",
      "[libx264 @ 0x5a34bab76200] i8 v,h,dc,ddl,ddr,vr,hd,vl,hu: 32% 18% 44%  2%  1%  1%  1%  1%  1%\n",
      "[libx264 @ 0x5a34bab76200] i4 v,h,dc,ddl,ddr,vr,hd,vl,hu: 53% 19% 13%  2%  3%  3%  3%  3%  1%\n",
      "[libx264 @ 0x5a34bab76200] i8c dc,h,v,p: 51% 22% 25%  1%\n",
      "[libx264 @ 0x5a34bab76200] Weighted P-Frames: Y:0.0% UV:0.0%\n",
      "[libx264 @ 0x5a34bab76200] ref P L0: 72.8%  7.6% 14.2%  5.3%\n",
      "[libx264 @ 0x5a34bab76200] ref B L0: 79.1% 19.5%  1.4%\n",
      "[libx264 @ 0x5a34bab76200] ref B L1: 98.9%  1.1%\n",
      "[libx264 @ 0x5a34bab76200] kb/s:394.98\n",
      "ffmpeg version n7.1 Copyright (c) 2000-2024 the FFmpeg developers\n",
      "  built with gcc 14.2.1 (GCC) 20240910\n",
      "  configuration: --prefix=/usr --disable-debug --disable-static --disable-stripping --enable-amf --enable-avisynth --enable-cuda-llvm --enable-lto --enable-fontconfig --enable-frei0r --enable-gmp --enable-gnutls --enable-gpl --enable-ladspa --enable-libaom --enable-libass --enable-libbluray --enable-libbs2b --enable-libdav1d --enable-libdrm --enable-libdvdnav --enable-libdvdread --enable-libfreetype --enable-libfribidi --enable-libglslang --enable-libgsm --enable-libharfbuzz --enable-libiec61883 --enable-libjack --enable-libjxl --enable-libmodplug --enable-libmp3lame --enable-libopencore_amrnb --enable-libopencore_amrwb --enable-libopenjpeg --enable-libopenmpt --enable-libopus --enable-libplacebo --enable-libpulse --enable-librav1e --enable-librsvg --enable-librubberband --enable-libsnappy --enable-libsoxr --enable-libspeex --enable-libsrt --enable-libssh --enable-libsvtav1 --enable-libtheora --enable-libv4l2 --enable-libvidstab --enable-libvmaf --enable-libvorbis --enable-libvpl --enable-libvpx --enable-libwebp --enable-libx264 --enable-libx265 --enable-libxcb --enable-libxml2 --enable-libxvid --enable-libzimg --enable-libzmq --enable-nvdec --enable-nvenc --enable-opencl --enable-opengl --enable-shared --enable-vapoursynth --enable-version3 --enable-vulkan\n",
      "  libavutil      59. 39.100 / 59. 39.100\n",
      "  libavcodec     61. 19.100 / 61. 19.100\n",
      "  libavformat    61.  7.100 / 61.  7.100\n",
      "  libavdevice    61.  3.100 / 61.  3.100\n",
      "  libavfilter    10.  4.100 / 10.  4.100\n",
      "  libswscale      8.  3.100 /  8.  3.100\n",
      "  libswresample   5.  3.100 /  5.  3.100\n",
      "  libpostproc    58.  3.100 / 58.  3.100\n",
      "Input #0, avi, from '../data/videos/test_2/i420.avi':\n",
      "  Metadata:\n",
      "    software        : Lavf61.7.100\n",
      "  Duration: 00:00:05.00, start: 0.000000, bitrate: 390 kb/s\n",
      "  Stream #0:0: Video: mpeg4 (Simple Profile) (FMP4 / 0x34504D46), yuv420p, 640x480 [SAR 1:1 DAR 4:3], 378 kb/s, 30 fps, 30 tbr, 30 tbn\n",
      "Stream mapping:\n",
      "  Stream #0:0 -> #0:0 (mpeg4 (native) -> mpeg4 (native))\n",
      "Press [q] to stop, [?] for help\n",
      "Output #0, avi, to '../data/videos/test_2/divx.avi':\n",
      "  Metadata:\n",
      "    software        : Lavf61.7.100\n",
      "    ISFT            : Lavf61.7.100\n",
      "  Stream #0:0: Video: mpeg4 (FMP4 / 0x34504D46), yuv420p(tv, progressive), 640x480 [SAR 1:1 DAR 4:3], q=2-31, 200 kb/s, 30 fps, 30 tbn\n",
      "      Metadata:\n",
      "        encoder         : Lavc61.19.100 mpeg4\n",
      "      Side data:\n",
      "        cpb: bitrate max/min/avg: 0/0/200000 buffer size: 0 vbv_delay: N/A\n",
      "[out#0/avi @ 0x564e2fe1a840] video:233KiB audio:0KiB subtitle:0KiB other streams:0KiB global headers:0KiB muxing overhead: 3.961784%\n",
      "frame=  149 fps=0.0 q=10.7 Lsize=     242KiB time=00:00:05.00 bitrate= 396.3kbits/s speed=31.4x    \n",
      "ffmpeg version n7.1 Copyright (c) 2000-2024 the FFmpeg developers\n",
      "  built with gcc 14.2.1 (GCC) 20240910\n",
      "  configuration: --prefix=/usr --disable-debug --disable-static --disable-stripping --enable-amf --enable-avisynth --enable-cuda-llvm --enable-lto --enable-fontconfig --enable-frei0r --enable-gmp --enable-gnutls --enable-gpl --enable-ladspa --enable-libaom --enable-libass --enable-libbluray --enable-libbs2b --enable-libdav1d --enable-libdrm --enable-libdvdnav --enable-libdvdread --enable-libfreetype --enable-libfribidi --enable-libglslang --enable-libgsm --enable-libharfbuzz --enable-libiec61883 --enable-libjack --enable-libjxl --enable-libmodplug --enable-libmp3lame --enable-libopencore_amrnb --enable-libopencore_amrwb --enable-libopenjpeg --enable-libopenmpt --enable-libopus --enable-libplacebo --enable-libpulse --enable-librav1e --enable-librsvg --enable-librubberband --enable-libsnappy --enable-libsoxr --enable-libspeex --enable-libsrt --enable-libssh --enable-libsvtav1 --enable-libtheora --enable-libv4l2 --enable-libvidstab --enable-libvmaf --enable-libvorbis --enable-libvpl --enable-libvpx --enable-libwebp --enable-libx264 --enable-libx265 --enable-libxcb --enable-libxml2 --enable-libxvid --enable-libzimg --enable-libzmq --enable-nvdec --enable-nvenc --enable-opencl --enable-opengl --enable-shared --enable-vapoursynth --enable-version3 --enable-vulkan\n",
      "  libavutil      59. 39.100 / 59. 39.100\n",
      "  libavcodec     61. 19.100 / 61. 19.100\n",
      "  libavformat    61.  7.100 / 61.  7.100\n",
      "  libavdevice    61.  3.100 / 61.  3.100\n",
      "  libavfilter    10.  4.100 / 10.  4.100\n",
      "  libswscale      8.  3.100 /  8.  3.100\n",
      "  libswresample   5.  3.100 /  5.  3.100\n",
      "  libpostproc    58.  3.100 / 58.  3.100\n",
      "Input #0, avi, from '../data/videos/test_2/i420.avi':\n",
      "  Metadata:\n",
      "    software        : Lavf61.7.100\n",
      "  Duration: 00:00:05.00, start: 0.000000, bitrate: 390 kb/s\n",
      "  Stream #0:0: Video: mpeg4 (Simple Profile) (FMP4 / 0x34504D46), yuv420p, 640x480 [SAR 1:1 DAR 4:3], 378 kb/s, 30 fps, 30 tbr, 30 tbn\n",
      "Stream mapping:\n",
      "  Stream #0:0 -> #0:0 (mpeg4 (native) -> flv1 (flv))\n",
      "Press [q] to stop, [?] for help\n",
      "Output #0, flv, to '../data/videos/test_2/flv.flv':\n",
      "  Metadata:\n",
      "    software        : Lavf61.7.100\n",
      "    encoder         : Lavf61.7.100\n",
      "  Stream #0:0: Video: flv1 ([2][0][0][0] / 0x0002), yuv420p(tv, progressive), 640x480 [SAR 1:1 DAR 4:3], q=2-31, 200 kb/s, 30 fps, 1k tbn\n",
      "      Metadata:\n",
      "        encoder         : Lavc61.19.100 flv\n",
      "      Side data:\n",
      "        cpb: bitrate max/min/avg: 0/0/200000 buffer size: 0 vbv_delay: N/A\n",
      "[out#0/flv @ 0x5853cc2c2840] video:284KiB audio:0KiB subtitle:0KiB other streams:0KiB global headers:0KiB muxing overhead: 0.901112%\n",
      "frame=  149 fps=0.0 q=12.2 Lsize=     286KiB time=00:00:05.00 bitrate= 469.4kbits/s speed=20.2x    \n",
      "ffmpeg version n7.1 Copyright (c) 2000-2024 the FFmpeg developers\n",
      "  built with gcc 14.2.1 (GCC) 20240910\n",
      "  configuration: --prefix=/usr --disable-debug --disable-static --disable-stripping --enable-amf --enable-avisynth --enable-cuda-llvm --enable-lto --enable-fontconfig --enable-frei0r --enable-gmp --enable-gnutls --enable-gpl --enable-ladspa --enable-libaom --enable-libass --enable-libbluray --enable-libbs2b --enable-libdav1d --enable-libdrm --enable-libdvdnav --enable-libdvdread --enable-libfreetype --enable-libfribidi --enable-libglslang --enable-libgsm --enable-libharfbuzz --enable-libiec61883 --enable-libjack --enable-libjxl --enable-libmodplug --enable-libmp3lame --enable-libopencore_amrnb --enable-libopencore_amrwb --enable-libopenjpeg --enable-libopenmpt --enable-libopus --enable-libplacebo --enable-libpulse --enable-librav1e --enable-librsvg --enable-librubberband --enable-libsnappy --enable-libsoxr --enable-libspeex --enable-libsrt --enable-libssh --enable-libsvtav1 --enable-libtheora --enable-libv4l2 --enable-libvidstab --enable-libvmaf --enable-libvorbis --enable-libvpl --enable-libvpx --enable-libwebp --enable-libx264 --enable-libx265 --enable-libxcb --enable-libxml2 --enable-libxvid --enable-libzimg --enable-libzmq --enable-nvdec --enable-nvenc --enable-opencl --enable-opengl --enable-shared --enable-vapoursynth --enable-version3 --enable-vulkan\n",
      "  libavutil      59. 39.100 / 59. 39.100\n",
      "  libavcodec     61. 19.100 / 61. 19.100\n",
      "  libavformat    61.  7.100 / 61.  7.100\n",
      "  libavdevice    61.  3.100 / 61.  3.100\n",
      "  libavfilter    10.  4.100 / 10.  4.100\n",
      "  libswscale      8.  3.100 /  8.  3.100\n",
      "  libswresample   5.  3.100 /  5.  3.100\n",
      "  libpostproc    58.  3.100 / 58.  3.100\n",
      "Input #0, avi, from '../data/videos/test_2/i420.avi':\n",
      "  Metadata:\n",
      "    software        : Lavf61.7.100\n",
      "  Duration: 00:00:05.00, start: 0.000000, bitrate: 390 kb/s\n",
      "  Stream #0:0: Video: mpeg4 (Simple Profile) (FMP4 / 0x34504D46), yuv420p, 640x480 [SAR 1:1 DAR 4:3], 378 kb/s, 30 fps, 30 tbr, 30 tbn\n",
      "Stream mapping:\n",
      "  Stream #0:0 -> #0:0 (mpeg4 (native) -> mpeg4 (libxvid))\n",
      "Press [q] to stop, [?] for help\n",
      "Output #0, avi, to '../data/videos/test_2/xvid.avi':\n",
      "  Metadata:\n",
      "    software        : Lavf61.7.100\n",
      "    ISFT            : Lavf61.7.100\n",
      "  Stream #0:0: Video: mpeg4 (xvid / 0x64697678), yuv420p(tv, progressive), 640x480 [SAR 1:1 DAR 4:3], q=2-31, 200 kb/s, 30 fps, 30 tbn\n",
      "      Metadata:\n",
      "        encoder         : Lavc61.19.100 libxvid\n",
      "[out#0/avi @ 0x58c001a0b840] video:189KiB audio:0KiB subtitle:0KiB other streams:0KiB global headers:0KiB muxing overhead: 4.874121%\n",
      "frame=  149 fps=0.0 q=16.0 Lsize=     198KiB time=00:00:05.00 bitrate= 325.1kbits/s speed=9.19x    \n"
     ]
    }
   ],
   "source": [
    "capture_video(\"test_1\")\n",
    "capture_video(\"test_2\")"
   ]
  },
  {
   "cell_type": "markdown",
   "metadata": {},
   "source": [
    "# Pricessing videos into DF"
   ]
  },
  {
   "cell_type": "code",
   "execution_count": 38,
   "metadata": {},
   "outputs": [],
   "source": [
    "def get_df_info(duration = 5, fps=30):\n",
    "    base_path = \"../data/videos/\"\n",
    "    test_folders = [f for f in os.listdir(base_path) if os.path.isdir(os.path.join(base_path, f))]\n",
    "    \n",
    "    data = []\n",
    "\n",
    "    for folder_name in test_folders:\n",
    "        folder_path = os.path.join(base_path, folder_name)\n",
    "        \n",
    "        for file in os.listdir(folder_path):\n",
    "            file_path = os.path.join(folder_path, file)\n",
    "\n",
    "            cap = cv2.VideoCapture(file_path)\n",
    "            cap.set(cv2.CAP_PROP_POS_FRAMES, 1)\n",
    "            _, frame= cap.read()\n",
    "            ref_img = cv2.cvtColor(frame, cv2.COLOR_BGR2GRAY)\n",
    "\n",
    "            cap = cv2.VideoCapture(file_path)\n",
    "            cap.set(cv2.CAP_PROP_POS_FRAMES, int(duration*fps/3))\n",
    "            _, frame= cap.read()\n",
    "            cv2.imwrite(f\"{folder_path}/output.jpg\", frame)\n",
    "            compare_img = cv2.cvtColor(frame, cv2.COLOR_BGR2GRAY)\n",
    "            \n",
    "            if compare_img is not None:\n",
    "                # Resize to match reference if needed\n",
    "                compare_img = cv2.resize(compare_img, (ref_img.shape[1], ref_img.shape[0]))\n",
    "\n",
    "                # Compute SSIM\n",
    "                ssim_score = ssim(ref_img, compare_img)\n",
    "                \n",
    "                # Compute Mean Squared Error (MSE)\n",
    "                mse_score = np.mean((ref_img.astype(\"float\") - compare_img.astype(\"float\")) ** 2)\n",
    "\n",
    "            if os.path.exists(file_path):\n",
    "                file_size = os.path.getsize(file_path) / 1024\n",
    "                if ref_img is not None:\n",
    "                    height, width = ref_img.shape[:2]\n",
    "                image_size = f\"{width}x{height}\"  # Known capture resolution\n",
    "                data.append([folder_name, file, duration, fps, image_size, file_size, ssim_score, mse_score])\n",
    "\n",
    "    # Create a global DataFrame\n",
    "    df = pd.DataFrame(data, columns=[\"test no.\", \"video format\", \"duration\", \"fps\", \"image size\", \"file size\", \"SSIM\", \"MSE\"])\n",
    "    return df"
   ]
  },
  {
   "cell_type": "code",
   "execution_count": 39,
   "metadata": {},
   "outputs": [
    {
     "data": {
      "text/html": [
       "<div>\n",
       "<style scoped>\n",
       "    .dataframe tbody tr th:only-of-type {\n",
       "        vertical-align: middle;\n",
       "    }\n",
       "\n",
       "    .dataframe tbody tr th {\n",
       "        vertical-align: top;\n",
       "    }\n",
       "\n",
       "    .dataframe thead th {\n",
       "        text-align: right;\n",
       "    }\n",
       "</style>\n",
       "<table border=\"1\" class=\"dataframe\">\n",
       "  <thead>\n",
       "    <tr style=\"text-align: right;\">\n",
       "      <th></th>\n",
       "      <th>test no.</th>\n",
       "      <th>video format</th>\n",
       "      <th>duration</th>\n",
       "      <th>fps</th>\n",
       "      <th>image size</th>\n",
       "      <th>file size</th>\n",
       "      <th>SSIM</th>\n",
       "      <th>MSE</th>\n",
       "    </tr>\n",
       "  </thead>\n",
       "  <tbody>\n",
       "  </tbody>\n",
       "</table>\n",
       "</div>"
      ],
      "text/plain": [
       "Empty DataFrame\n",
       "Columns: [test no., video format, duration, fps, image size, file size, SSIM, MSE]\n",
       "Index: []"
      ]
     },
     "execution_count": 39,
     "metadata": {},
     "output_type": "execute_result"
    }
   ],
   "source": [
    "df = get_df_info()\n",
    "df.head(10)"
   ]
  },
  {
   "cell_type": "markdown",
   "metadata": {},
   "source": [
    "# Visualisation"
   ]
  },
  {
   "cell_type": "code",
   "execution_count": null,
   "metadata": {},
   "outputs": [],
   "source": []
  },
  {
   "cell_type": "code",
   "execution_count": null,
   "metadata": {},
   "outputs": [],
   "source": []
  }
 ],
 "metadata": {
  "kernelspec": {
   "display_name": "pvenv",
   "language": "python",
   "name": "python3"
  },
  "language_info": {
   "codemirror_mode": {
    "name": "ipython",
    "version": 3
   },
   "file_extension": ".py",
   "mimetype": "text/x-python",
   "name": "python",
   "nbconvert_exporter": "python",
   "pygments_lexer": "ipython3",
   "version": "3.13.2"
  }
 },
 "nbformat": 4,
 "nbformat_minor": 2
}
